<?xml version="1.0" encoding="UTF-8" ?>
<!DOCTYPE svg PUBLIC "-//W3C//DTD SVG 1.1//EN" "http://www.w3.org/Graphics/SVG/1.1/DTD/svg11.dtd">
<svg width="699pt" height="675pt" viewBox="0 0 699 675" version="1.1" xmlns="http://www.w3.org/2000/svg">
<g id="#ffffffff">
<path fill="#ffffff" opacity="1.00" d=" M 266.87 1.91 C 306.28 -1.33 346.58 1.33 384.46 13.17 C 401.36 18.45 417.75 25.32 433.54 33.34 C 445.43 39.98 457.21 46.89 468.39 54.70 C 478.27 61.19 487.06 69.14 495.75 77.11 C 508.48 88.11 519.44 100.96 530.04 113.98 C 556.61 147.39 574.50 187.31 583.51 228.94 C 584.31 231.98 584.51 235.23 585.82 238.10 C 588.48 239.19 591.43 239.27 594.23 239.83 C 621.87 244.34 649.51 248.89 677.15 253.38 C 682.38 254.00 687.58 255.78 691.61 259.26 C 697.09 263.59 699.68 271.04 698.47 277.87 C 682.01 371.92 665.99 466.04 649.50 560.08 C 643.71 592.87 637.93 625.66 632.21 658.46 C 631.22 664.50 627.05 669.77 621.76 672.70 C 617.45 674.47 612.63 674.41 608.08 673.87 C 536.97 662.00 466.07 648.98 395.07 636.48 C 369.99 632.23 344.87 628.25 319.86 623.61 C 310.96 622.21 300.64 620.68 295.03 612.75 C 290.47 607.27 290.42 599.71 291.21 593.00 C 269.95 592.32 248.80 589.04 228.18 583.86 C 185.48 573.95 145.35 554.07 110.76 527.26 C 78.24 501.92 50.94 469.67 32.30 432.84 C 20.41 410.25 12.46 385.76 6.92 360.89 C 2.81 342.23 1.23 323.12 0.45 304.06 C -1.07 249.78 12.01 194.99 38.71 147.65 C 70.60 91.14 122.85 47.06 182.89 22.93 C 209.69 11.98 238.08 4.90 266.87 1.91 M 245.44 54.43 C 242.38 57.02 239.18 59.52 236.74 62.74 C 228.92 71.73 221.72 81.28 215.41 91.39 C 204.00 108.91 195.91 128.27 188.77 147.85 C 219.05 153.83 249.95 155.84 280.70 157.43 C 280.27 116.60 280.64 75.77 280.25 34.95 C 267.54 39.18 255.69 45.79 245.44 54.43 M 310.00 34.79 C 310.00 75.71 310.00 116.62 310.00 157.54 C 319.99 157.20 330.01 157.36 339.95 156.16 C 360.86 155.13 381.56 151.80 402.26 148.85 C 396.86 134.23 391.48 119.56 384.61 105.54 C 376.34 89.17 366.07 73.83 354.05 59.97 C 341.74 48.13 326.53 39.22 310.00 34.79 M 95.50 120.03 C 105.01 124.50 114.84 128.27 124.86 131.40 C 136.29 135.26 147.84 138.88 159.70 141.12 C 166.77 122.59 174.08 104.07 183.88 86.77 C 191.85 71.82 201.58 57.87 212.40 44.84 C 168.20 59.91 126.24 84.40 95.50 120.03 M 379.88 44.82 C 389.97 55.50 398.15 67.86 405.52 80.53 C 416.96 99.73 424.48 120.87 431.98 141.82 C 453.82 136.23 475.32 129.26 495.91 120.06 C 481.30 103.88 465.04 89.08 446.78 77.11 C 433.03 68.15 418.80 59.79 403.52 53.69 C 395.79 50.35 387.98 47.18 379.88 44.82 M 76.19 144.95 C 60.13 169.94 47.61 197.25 39.48 225.83 C 34.77 243.54 32.24 261.74 30.96 280.00 C 66.11 280.00 101.26 280.00 136.41 280.00 C 136.82 256.37 139.20 232.79 143.25 209.51 C 145.59 196.82 148.45 184.24 150.96 171.58 C 125.29 165.06 100.09 156.40 76.19 144.95 M 478.53 159.43 C 465.97 163.90 453.08 167.30 440.30 171.04 C 443.54 183.67 447.01 196.27 449.35 209.11 C 449.73 211.42 449.92 213.83 451.12 215.91 C 459.25 216.14 467.17 218.25 475.19 219.39 C 501.14 223.85 527.13 228.10 553.11 232.36 C 550.48 220.67 547.72 208.94 542.91 197.91 C 536.14 179.16 526.24 161.74 514.82 145.46 C 502.80 150.31 490.73 155.06 478.53 159.43 M 180.23 177.87 C 177.54 189.71 175.00 201.58 172.73 213.51 C 168.44 235.42 167.46 257.77 165.94 280.00 C 204.25 279.97 242.55 279.93 280.86 279.91 C 280.99 249.30 281.01 218.70 280.90 188.09 C 273.22 187.93 265.52 188.25 257.87 187.35 C 243.08 186.31 228.25 185.46 213.57 183.26 C 202.36 182.10 191.40 179.33 180.23 177.87 M 406.49 178.30 C 392.73 180.57 379.01 183.24 365.11 184.51 C 352.14 186.03 339.11 187.01 326.08 187.96 C 320.70 187.99 315.33 188.19 310.00 188.88 C 310.00 219.25 310.00 249.63 310.00 280.00 C 321.98 280.00 333.95 280.00 345.93 280.00 C 349.56 259.27 353.23 238.55 357.08 217.87 C 358.82 208.97 368.03 202.75 376.91 203.57 C 391.09 204.44 404.87 208.64 419.02 209.67 C 417.05 208.55 417.11 206.13 416.45 204.25 C 414.59 195.49 412.65 186.74 410.41 178.07 C 409.10 178.07 407.78 178.09 406.49 178.30 M 358.07 381.99 C 349.58 430.37 340.51 478.65 332.57 527.13 C 328.76 549.02 325.55 571.02 321.33 592.84 C 330.87 595.10 340.62 596.23 350.18 598.34 C 435.08 613.40 520.01 628.29 604.96 643.04 C 614.26 591.79 622.97 540.43 631.72 489.08 C 640.03 441.07 648.69 393.13 656.89 345.11 C 660.35 324.47 664.29 303.90 667.19 283.17 C 622.10 275.56 577.08 267.53 531.98 259.94 C 502.69 255.06 473.48 249.69 444.18 244.83 C 424.19 241.30 404.06 238.44 384.17 234.32 C 374.80 283.42 367.24 332.85 358.07 381.99 M 30.96 310.72 C 31.53 325.59 33.85 340.31 36.74 354.89 C 38.80 365.93 42.66 376.50 45.87 387.22 C 53.41 408.97 64.66 429.27 77.42 448.36 C 101.21 437.58 126.00 429.25 151.07 421.99 C 141.88 385.56 137.35 348.08 135.99 310.56 C 100.98 310.63 65.97 310.68 30.96 310.72 M 166.00 310.72 C 166.98 325.85 167.43 341.04 169.31 356.08 C 171.24 376.02 175.77 395.58 180.29 415.07 C 196.61 411.47 213.30 410.22 229.89 408.58 C 235.54 407.75 241.29 408.39 246.90 407.24 C 258.08 407.03 269.27 406.94 280.45 406.70 C 280.45 374.64 280.45 342.57 280.45 310.50 C 242.30 310.90 204.15 310.59 166.00 310.72 M 311.00 310.58 C 311.00 342.72 311.00 374.86 311.00 407.00 C 315.28 407.00 319.57 407.00 323.86 407.00 C 329.58 374.94 334.89 342.80 340.87 310.78 C 330.91 310.72 320.96 310.65 311.00 310.58 M 189.68 445.19 C 191.72 453.28 195.21 460.90 198.61 468.49 C 203.82 480.19 209.85 491.51 216.52 502.44 C 221.08 509.44 225.35 516.68 230.85 523.00 C 235.66 528.55 240.17 534.48 246.22 538.78 C 256.21 547.30 267.70 554.19 280.29 558.11 C 280.29 517.74 280.26 477.37 280.26 437.01 C 249.90 436.81 219.55 439.80 189.68 445.19 M 310.00 436.66 C 310.19 453.17 309.60 469.70 310.32 486.19 C 312.67 469.63 315.86 453.20 318.13 436.63 C 315.42 436.64 312.71 436.65 310.00 436.66 M 98.24 473.70 C 108.60 484.02 118.62 494.85 130.61 503.34 C 146.90 515.76 164.60 526.24 183.10 535.00 C 192.62 539.48 202.54 543.01 212.27 546.99 C 204.50 538.80 198.06 529.48 192.03 519.98 C 180.38 501.74 171.02 482.10 163.42 461.86 C 162.10 458.57 161.10 455.13 159.29 452.06 C 138.37 457.49 117.67 464.13 98.24 473.70 Z" />
<path fill="#ffffff" opacity="1.00" d=" M 400.11 259.84 C 426.13 263.98 452.05 268.76 478.04 273.13 C 525.05 280.80 571.91 289.33 618.89 297.18 C 627.20 298.82 635.71 299.56 643.88 301.83 C 642.19 307.15 641.69 312.73 640.55 318.17 C 636.81 337.55 633.82 357.06 630.33 376.48 C 621.17 428.61 612.22 480.77 603.15 532.92 C 601.50 543.40 599.22 553.79 597.85 564.31 C 591.17 564.11 584.68 562.39 578.12 561.35 C 532.11 553.13 486.08 545.03 440.05 536.93 C 411.70 531.60 383.24 526.88 354.84 521.83 C 362.58 478.07 370.03 434.26 377.69 390.48 C 384.07 353.66 390.22 316.79 396.89 280.02 C 397.99 273.30 399.57 266.64 400.11 259.84 M 507.75 315.04 C 500.23 318.97 493.23 324.96 490.30 333.16 C 489.48 335.06 489.14 337.22 487.80 338.86 C 486.48 339.17 485.14 338.73 483.83 338.61 C 476.27 337.36 468.41 338.43 461.28 341.14 C 454.31 343.88 449.01 350.50 448.55 358.08 C 446.59 371.67 457.75 384.81 471.10 386.39 C 498.74 391.06 526.43 395.56 554.07 400.26 C 557.32 400.89 560.63 401.14 563.94 401.19 C 571.55 401.60 578.57 396.73 582.67 390.61 C 586.56 384.72 585.35 376.88 581.74 371.17 C 577.41 364.65 570.61 359.93 563.15 357.68 C 567.37 339.83 557.31 319.62 540.04 313.01 C 529.70 308.47 517.60 309.95 507.75 315.04 M 509.53 427.63 C 501.59 433.98 493.26 439.86 485.81 446.80 C 481.06 451.15 475.43 454.34 470.36 458.28 C 466.90 460.99 464.55 465.00 460.58 467.08 C 453.79 459.18 448.36 450.22 441.61 442.30 C 438.91 440.95 436.02 439.66 432.97 439.50 C 426.53 440.89 422.08 446.24 418.15 451.12 C 411.38 456.65 404.89 462.51 398.82 468.81 C 392.28 475.67 384.69 481.48 378.78 488.93 C 375.45 492.70 375.24 498.72 378.20 502.75 C 380.89 506.48 385.81 507.13 389.99 508.01 C 430.34 515.42 470.79 522.27 511.17 529.52 C 532.71 533.18 554.09 538.16 575.95 539.57 C 580.44 539.69 585.37 537.55 587.20 533.21 C 590.54 526.08 588.67 517.67 584.68 511.20 C 578.81 501.23 574.63 490.36 568.46 480.56 C 564.35 474.23 561.33 467.27 556.91 461.14 C 553.65 456.21 551.52 450.59 547.78 445.98 C 542.34 439.13 539.64 429.84 531.72 425.21 C 524.92 420.67 515.46 422.46 509.53 427.63 Z" />
</g>
</svg>
